<svg xmlns="http://www.w3.org/2000/svg" xmlns:xlink="http://www.w3.org/1999/xlink" width="500"
    zoomAndPan="magnify" viewBox="0 0 375 165.000002" height="220"
    preserveAspectRatio="xMidYMid meet" version="1.0">
    <defs>
        <g />
    </defs>
    <path fill="#2525ea"
        d="M 2.601562 65.527344 L 34.996094 65.527344 L 34.996094 97.917969 L 2.601562 97.917969 Z M 2.601562 65.527344 "
        fillOpacity="1" fillRule="nonzero" />
    <path fill="#02257a"
        d="M 99.78125 97.917969 L 67.386719 97.917969 L 67.386719 65.527344 L 99.78125 65.527344 Z M 99.78125 97.917969 "
        fillOpacity="1" fillRule="nonzero" />
    <path fill="#a6a6f1"
        d="M 35 65.527344 L 67.390625 33.132812 L 67.390625 65.527344 L 35 97.917969 Z M 35 65.527344 "
        fillOpacity="1" fillRule="nonzero" />
    <path fill="#6c6cec"
        d="M 67.390625 97.917969 L 35 130.3125 L 35 97.917969 L 67.390625 65.527344 Z M 67.390625 97.917969 "
        fillOpacity="1" fillRule="nonzero" />
    <path fill="#4b4be5"
        d="M 2.601562 65.527344 L 67.386719 0.742188 L 67.386719 33.136719 L 34.996094 65.527344 Z M 2.601562 65.527344 "
        fillOpacity="1" fillRule="nonzero" />
    <path fill="#1212c1"
        d="M 99.78125 97.917969 L 34.996094 162.703125 L 34.996094 130.3125 L 67.386719 97.917969 Z M 99.78125 97.917969 "
        fillOpacity="1" fillRule="nonzero" />
    <g fill="#FFFFFF" fillOpacity="1">
        <g transform="translate(128.534919, 99.359458)">
            <g>
                <path
                    d="M 39.890625 -56.09375 C 42.773438 -54.863281 45.148438 -52.910156 47.015625 -50.234375 C 48.890625 -47.554688 49.828125 -44.078125 49.828125 -39.796875 C 49.828125 -35.628906 48.90625 -32.164062 47.0625 -29.40625 C 45.21875 -26.65625 42.878906 -24.691406 40.046875 -23.515625 C 37.160156 -22.285156 32.554688 -21.671875 26.234375 -21.671875 L 17.421875 -21.671875 L 17.421875 0 L 5.859375 0 L 5.859375 -57.453125 L 25.84375 -57.453125 C 29.53125 -57.453125 32.46875 -57.359375 34.65625 -57.171875 C 36.851562 -56.984375 38.597656 -56.625 39.890625 -56.09375 Z M 37.875 -39.640625 C 37.875 -43.066406 36.191406 -45.503906 32.828125 -46.953125 C 31.585938 -47.484375 28.988281 -47.75 25.03125 -47.75 L 17.421875 -47.75 L 17.421875 -31.375 L 25.03125 -31.375 C 28.988281 -31.375 32.117188 -31.921875 34.421875 -33.015625 C 36.722656 -34.117188 37.875 -36.328125 37.875 -39.640625 Z M 37.875 -39.640625 " />
            </g>
        </g>
    </g>
    <g fill="#FFFFFF" fillOpacity="1">
        <g transform="translate(182.057784, 99.359458)">
            <g>
                <path
                    d="M 25.03125 -42.53125 C 26.207031 -42.53125 27.453125 -42.34375 28.765625 -41.96875 C 30.078125 -41.59375 31.242188 -41.113281 32.265625 -40.53125 L 28.8125 -30.890625 C 26.9375 -32.066406 25.222656 -32.65625 23.671875 -32.65625 C 21.585938 -32.65625 20.007812 -31.945312 18.9375 -30.53125 C 17.863281 -29.113281 17.15625 -27.132812 16.8125 -24.59375 C 16.46875 -22.050781 16.296875 -18.664062 16.296875 -14.4375 L 16.296875 0 L 5.296875 0 L 5.296875 -41.5625 L 15.484375 -41.5625 L 15.484375 -35.71875 L 15.65625 -35.71875 C 16.988281 -37.957031 18.320312 -39.648438 19.65625 -40.796875 C 21 -41.953125 22.789062 -42.53125 25.03125 -42.53125 Z M 25.03125 -42.53125 " />
            </g>
        </g>
    </g>
    <g fill="#FFFFFF" fillOpacity="1">
        <g transform="translate(213.272771, 99.359458)">
            <g>
                <path
                    d="M 21.671875 -42.53125 C 28.304688 -42.53125 33.253906 -40.375 36.515625 -36.0625 C 39.773438 -31.757812 41.40625 -25.625 41.40625 -17.65625 L 13.796875 -17.65625 C 13.910156 -14.875 14.726562 -12.476562 16.25 -10.46875 C 17.769531 -8.46875 19.976562 -7.46875 22.875 -7.46875 C 24.6875 -7.46875 26.164062 -7.929688 27.3125 -8.859375 C 28.46875 -9.796875 29.316406 -11.253906 29.859375 -13.234375 L 40.84375 -11.390625 C 39.457031 -7.328125 37.210938 -4.25 34.109375 -2.15625 C 31.003906 -0.0703125 27.203125 0.96875 22.703125 0.96875 C 16.015625 0.96875 10.960938 -1.039062 7.546875 -5.0625 C 5.941406 -6.925781 4.707031 -9.273438 3.84375 -12.109375 C 2.988281 -14.953125 2.5625 -17.765625 2.5625 -20.546875 C 2.5625 -24.335938 3.242188 -27.90625 4.609375 -31.25 C 5.972656 -34.59375 8.085938 -37.304688 10.953125 -39.390625 C 13.816406 -41.484375 17.390625 -42.53125 21.671875 -42.53125 Z M 14.046875 -24.390625 L 30.5 -24.390625 C 30.445312 -27.765625 29.601562 -30.226562 27.96875 -31.78125 C 26.332031 -33.332031 24.421875 -34.109375 22.234375 -34.109375 C 19.660156 -34.109375 17.648438 -33.179688 16.203125 -31.328125 C 14.765625 -29.484375 14.046875 -27.171875 14.046875 -24.390625 Z M 14.046875 -24.390625 " />
            </g>
        </g>
    </g>
    <g fill="#FFFFFF" fillOpacity="1">
        <g transform="translate(257.888541, 99.359458)">
            <g>
                <path
                    d="M 8.34375 -36.265625 C 11.925781 -40.441406 17.007812 -42.53125 23.59375 -42.53125 C 33.488281 -42.53125 39.664062 -38.117188 42.125 -29.296875 L 31.296875 -27.359375 C 30.390625 -31.753906 27.875 -33.953125 23.75 -33.953125 C 20.96875 -33.953125 18.757812 -32.988281 17.125 -31.0625 C 15.5 -29.132812 14.6875 -26.003906 14.6875 -21.671875 C 14.6875 -17.441406 15.378906 -14.109375 16.765625 -11.671875 C 18.160156 -9.242188 20.546875 -8.03125 23.921875 -8.03125 C 26.109375 -8.03125 27.859375 -8.679688 29.171875 -9.984375 C 30.484375 -11.296875 31.378906 -13.289062 31.859375 -15.96875 L 42.6875 -14.125 C 40.445312 -4.0625 34.003906 0.96875 23.359375 0.96875 C 17.046875 0.96875 12.175781 -0.957031 8.75 -4.8125 C 6.976562 -6.789062 5.640625 -9.195312 4.734375 -12.03125 C 3.828125 -14.875 3.375 -17.789062 3.375 -20.78125 C 3.375 -23.882812 3.800781 -26.773438 4.65625 -29.453125 C 5.507812 -32.128906 6.738281 -34.398438 8.34375 -36.265625 Z M 8.34375 -36.265625 " />
            </g>
        </g>
    </g>
    <g fill="#FFFFFF" fillOpacity="1">
        <g transform="translate(302.504311, 99.359458)">
            <g>
                <path
                    d="M 9.390625 -54.484375 C 10.460938 -55.828125 11.851562 -56.816406 13.5625 -57.453125 C 15.269531 -58.097656 17.382812 -58.421875 19.90625 -58.421875 C 23.007812 -58.421875 26.054688 -57.96875 29.046875 -57.0625 L 27.609375 -49.359375 C 25.734375 -49.785156 24.046875 -50 22.546875 -50 C 20.835938 -50 19.660156 -49.582031 19.015625 -48.75 C 18.378906 -47.925781 18.0625 -46.707031 18.0625 -45.09375 L 18.0625 -41.5625 L 26.328125 -41.5625 L 26.328125 -32.828125 L 18.0625 -32.828125 L 18.0625 0 L 7.0625 0 L 7.0625 -32.828125 L 0.96875 -32.828125 L 0.96875 -41.5625 L 7.0625 -41.5625 L 7.0625 -45.65625 C 7.0625 -49.613281 7.835938 -52.554688 9.390625 -54.484375 Z M 9.390625 -54.484375 " />
            </g>
        </g>
    </g>
    <g fill="#FFFFFF" fillOpacity="1">
        <g transform="translate(329.225624, 99.359458)">
            <g>
                <path
                    d="M 22.15625 -12.03125 L 22.3125 -12.03125 L 31.9375 -41.5625 L 43.328125 -41.5625 L 28.65625 -1.53125 L 27.6875 1.28125 C 26.289062 5.1875 25.046875 8.140625 23.953125 10.140625 C 22.859375 12.148438 21.253906 13.769531 19.140625 15 C 17.023438 16.238281 14.125 16.859375 10.4375 16.859375 C 8.238281 16.859375 6.148438 16.640625 4.171875 16.203125 L 3.203125 7.625 C 5.078125 7.945312 6.601562 8.109375 7.78125 8.109375 C 10.082031 8.109375 11.859375 7.503906 13.109375 6.296875 C 14.367188 5.097656 15.457031 3.023438 16.375 0.078125 L 0.5625 -41.5625 L 12.28125 -41.5625 Z M 22.15625 -12.03125 " />
            </g>
        </g>
    </g>
</svg>