<?xml version="1.0" encoding="UTF-8" standalone="no"?>
<!DOCTYPE svg PUBLIC "-//W3C//DTD SVG 1.1//EN" "http://www.w3.org/Graphics/SVG/1.1/DTD/svg11.dtd">
<svg xmlns="http://www.w3.org/2000/svg" xmlns:xlink="http://www.w3.org/1999/xlink" version="1.1"
	width="1024" height="1024" viewBox="0 0 1080 1080" xml:space="preserve">
<desc>Created with Fabric.js 5.2.4</desc>
<defs>
</defs>
<g transform="matrix(1 0 0 1 540 540)" id="25b847fb-27a5-4722-8ae1-b5ad38deea48"  >
<rect style="stroke: none; stroke-width: 1; stroke-dasharray: none; stroke-linecap: butt; stroke-dashoffset: 0; stroke-linejoin: miter; stroke-miterlimit: 4; fill: rgb(255,255,255); fill-rule: nonzero; opacity: 1; visibility: hidden;" vector-effect="non-scaling-stroke"  x="-540" y="-540" rx="0" ry="0" width="1080" height="1080" />
</g>
<g transform="matrix(1 0 0 1 540 540)" id="3862a5ce-23e8-4ecd-8947-9f906bd33c6d"  >
</g>
<g transform="matrix(12.16 0 0 12.16 540 540)"  >
<g style="" vector-effect="non-scaling-stroke"   >
		<g transform="matrix(1 0 0 1 15.81 0.94)" style="" id="object-0"  >
		<text xml:space="preserve" font-family="'Arial Rounded MT Bold'" font-size="17.3" font-style="normal" font-weight="normal" style="stroke: none; stroke-width: 1; stroke-dasharray: none; stroke-linecap: butt; stroke-dashoffset: 0; stroke-linejoin: miter; stroke-miterlimit: 4; fill: rgb(51,51,51); fill-rule: nonzero; opacity: 1; white-space: pre;" ><tspan x="-27.19" y="5.43" >Precfy</tspan></text>
</g>
		<g transform="matrix(1 0 0 1 -38.2 0)" id="object-1"  >
<rect style="stroke: none; stroke-width: 1; stroke-dasharray: none; stroke-linecap: butt; stroke-dashoffset: 0; stroke-linejoin: miter; stroke-miterlimit: 4; fill: rgb(37,37,234); fill-rule: nonzero; opacity: 1;" vector-effect="non-scaling-stroke"  x="-4.8" y="-4.8" rx="0" ry="0" width="9.6" height="9.6" />
</g>
		<g transform="matrix(-1 0 0 -1 -19 0)" id="object-2"  >
<rect style="stroke: none; stroke-width: 1; stroke-dasharray: none; stroke-linecap: butt; stroke-dashoffset: 0; stroke-linejoin: miter; stroke-miterlimit: 4; fill: rgb(2,37,122); fill-rule: nonzero; opacity: 1;" vector-effect="non-scaling-stroke"  x="-4.8" y="-4.8" rx="0" ry="0" width="9.6" height="9.6" />
</g>
		<g transform="matrix(1 0 0 1 -28.6 -4.8)" id="object-3"  >
<path style="stroke: none; stroke-width: 1; stroke-dasharray: none; stroke-linecap: butt; stroke-dashoffset: 0; stroke-linejoin: miter; stroke-miterlimit: 4; fill: rgb(166,166,241); fill-rule: nonzero; opacity: 1;" vector-effect="non-scaling-stroke"  transform=" translate(-14.4, -19.2)" d="M 9.601 19.2 L 19.201 9.599 L 19.201 19.2 L 9.601 28.799 L 9.601 19.2 Z" stroke-linecap="round" />
</g>
		<g transform="matrix(1 0 0 1 -28.6 4.8)" id="object-4"  >
<path style="stroke: none; stroke-width: 1; stroke-dasharray: none; stroke-linecap: butt; stroke-dashoffset: 0; stroke-linejoin: miter; stroke-miterlimit: 4; fill: rgb(108,108,236); fill-rule: nonzero; opacity: 1;" vector-effect="non-scaling-stroke"  transform=" translate(-14.4, -28.8)" d="M 19.201 28.8 L 9.601 38.4 L 9.601 28.8 L 19.201 19.2 L 19.201 28.8 Z" stroke-linecap="round" />
</g>
		<g transform="matrix(1 0 0 1 -33.4 -14.4)" id="object-5"  >
<path style="stroke: none; stroke-width: 1; stroke-dasharray: none; stroke-linecap: butt; stroke-dashoffset: 0; stroke-linejoin: miter; stroke-miterlimit: 4; fill: rgb(75,75,229); fill-rule: nonzero; opacity: 1;" vector-effect="non-scaling-stroke"  transform=" translate(-9.6, -9.6)" d="M 0 19.2 L 19.2 0 L 19.2 9.6 L 9.6 19.2 L 0 19.2 Z" stroke-linecap="round" />
</g>
		<g transform="matrix(1 0 0 1 -23.8 14.4)" id="object-6"  >
<path style="stroke: none; stroke-width: 1; stroke-dasharray: none; stroke-linecap: butt; stroke-dashoffset: 0; stroke-linejoin: miter; stroke-miterlimit: 4; fill: rgb(18,18,193); fill-rule: nonzero; opacity: 1;" vector-effect="non-scaling-stroke"  transform=" translate(-19.2, -38.4)" d="M 28.8 28.8 L 9.6 48 L 9.6 38.4 L 19.2 28.8 L 28.8 28.8 Z" stroke-linecap="round" />
</g>
</g>
</g>
</svg>