<svg width="1000" height="440" viewBox="0 0 1000 440" fill="none" xmlns="http://www.w3.org/2000/svg">
<path d="M6.93748 174.74H93.3229V261.115H6.93748V174.74Z" fill="#2525EA"/>
<path d="M266.083 261.115H179.698V174.74H266.083V261.115Z" fill="#02257A"/>
<path d="M93.3333 174.74L179.708 88.3542V174.74L93.3333 261.115V174.74Z" fill="#A6A6F1"/>
<path d="M179.708 261.115L93.3333 347.5V261.115L179.708 174.74V261.115Z" fill="#6C6CEC"/>
<path d="M6.93748 174.74L179.698 1.97916V88.3646L93.3229 174.74H6.93748Z" fill="#4B4BE5"/>
<path d="M266.083 261.115L93.3229 433.875V347.5L179.698 261.115H266.083Z" fill="#1212C1"/>
<path d="M449.135 115.375C456.822 118.656 463.156 123.865 468.135 131C473.135 138.146 475.635 147.417 475.635 158.834C475.635 169.948 473.176 179.188 468.26 186.542C463.343 193.875 457.104 199.115 449.551 202.25C441.854 205.531 429.572 207.167 412.718 207.167H389.218V264.959H358.385V111.75H411.676C421.51 111.75 429.343 112 435.176 112.5C441.031 113 445.687 113.959 449.135 115.375ZM443.76 159.25C443.76 150.115 439.27 143.615 430.301 139.75C426.989 138.334 420.062 137.625 409.51 137.625H389.218V181.292H409.51C420.062 181.292 428.406 179.834 434.551 176.917C440.687 173.979 443.76 168.084 443.76 159.25Z" fill="black"/>
<path d="M552.237 151.542C555.373 151.542 558.696 152.042 562.196 153.042C565.696 154.042 568.8 155.323 571.529 156.875L562.321 182.584C557.321 179.448 552.748 177.875 548.612 177.875C543.05 177.875 538.842 179.771 535.987 183.542C533.123 187.323 531.237 192.604 530.321 199.375C529.404 206.156 528.946 215.188 528.946 226.459V264.959H499.612V154.125H526.779V169.709H527.237C530.79 163.74 534.342 159.229 537.904 156.167C541.487 153.084 546.258 151.542 552.237 151.542Z" fill="black"/>
<path d="M626.519 151.542C644.207 151.542 657.404 157.292 666.102 168.792C674.79 180.271 679.144 196.625 679.144 217.875H605.519C605.821 225.292 607.998 231.688 612.061 237.042C616.113 242.375 621.998 245.042 629.727 245.042C634.561 245.042 638.498 243.813 641.561 241.334C644.644 238.834 646.904 234.948 648.352 229.667L677.644 234.584C673.946 245.417 667.957 253.625 659.686 259.209C651.404 264.771 641.269 267.542 629.269 267.542C611.436 267.542 597.957 262.188 588.852 251.459C584.571 246.49 581.279 240.229 578.977 232.667C576.696 225.084 575.561 217.584 575.561 210.167C575.561 200.063 577.373 190.542 581.019 181.625C584.654 172.709 590.29 165.479 597.936 159.917C605.571 154.334 615.102 151.542 626.519 151.542ZM606.186 199.917H650.061C649.915 190.917 647.665 184.354 643.311 180.209C638.946 176.073 633.852 174 628.019 174C621.154 174 615.79 176.479 611.936 181.417C608.102 186.334 606.186 192.5 606.186 199.917Z" fill="black"/>
<path d="M709.953 168.25C719.505 157.115 733.057 151.542 750.619 151.542C777.005 151.542 793.474 163.313 800.036 186.834L771.161 192C768.744 180.281 762.036 174.417 751.036 174.417C743.619 174.417 737.724 176.99 733.369 182.125C729.036 187.271 726.869 195.615 726.869 207.167C726.869 218.448 728.713 227.334 732.411 233.834C736.13 240.313 742.494 243.542 751.494 243.542C757.328 243.542 761.994 241.813 765.494 238.334C768.994 234.834 771.38 229.521 772.661 222.375L801.536 227.292C795.557 254.125 778.38 267.542 749.994 267.542C733.161 267.542 720.172 262.406 711.036 252.125C706.307 246.854 702.744 240.438 700.328 232.875C697.911 225.292 696.703 217.521 696.703 209.542C696.703 201.271 697.838 193.563 700.119 186.417C702.39 179.281 705.672 173.229 709.953 168.25Z" fill="black"/>
<path d="M831.72 119.667C834.574 116.084 838.282 113.448 842.845 111.75C847.397 110.031 853.032 109.167 859.761 109.167C868.032 109.167 876.157 110.375 884.136 112.792L880.303 133.334C875.303 132.198 870.803 131.625 866.803 131.625C862.241 131.625 859.105 132.74 857.386 134.959C855.689 137.156 854.845 140.406 854.845 144.709V154.125H876.886V177.417H854.845V264.959H825.511V177.417H809.261V154.125H825.511V143.209C825.511 132.656 827.574 124.813 831.72 119.667Z" fill="black"/>
<path d="M937.018 232.875H937.435L963.102 154.125H993.477L954.352 260.875L951.768 268.375C948.039 278.792 944.727 286.667 941.81 292C938.893 297.354 934.612 301.677 928.977 304.959C923.331 308.261 915.602 309.917 905.768 309.917C899.904 309.917 894.331 309.334 889.06 308.167L886.477 285.292C891.477 286.146 895.539 286.584 898.685 286.584C904.82 286.584 909.56 284.969 912.893 281.75C916.247 278.552 919.154 273.021 921.602 265.167L879.435 154.125H910.685L937.018 232.875Z" fill="black"/>
</svg>
