<svg width="228" height="100" viewBox="0 0 228 100" fill="none" xmlns="http://www.w3.org/2000/svg">
<path d="M1.57553 39.7135H21.1939V59.3442H1.57553V39.7135Z" fill="#2525EA"/>
<path d="M60.4283 59.3442H40.8099V39.7135H60.4283V59.3442Z" fill="#02257A"/>
<path d="M21.1963 39.7135L40.8123 20.0805V39.7135L21.1963 59.3442V39.7135Z" fill="#A6A6F1"/>
<path d="M40.8123 59.3442L21.1963 78.9773V59.3442L40.8123 39.7135V59.3442Z" fill="#6C6CEC"/>
<path d="M1.57553 39.7135L40.8099 0.449809V20.0829L21.1939 39.7135H1.57553Z" fill="#4B4BE5"/>
<path d="M60.4283 59.3442L21.1939 98.608V78.9773L40.8099 59.3442H60.4283Z" fill="#1212C1"/>
<path d="M102 26.2216C103.746 26.9674 105.184 28.1511 106.315 29.7728C107.45 31.3968 108.018 33.5038 108.018 36.0985C108.018 38.6246 107.46 40.7245 106.343 42.3959C105.227 44.0625 103.81 45.2534 102.094 45.966C100.346 46.7117 97.5571 47.0834 93.7294 47.0834H88.3925V60.2179H81.3902V25.3978H93.4929C95.7261 25.3978 97.505 25.4546 98.8298 25.5682C100.159 25.6819 101.217 25.8997 102 26.2216ZM100.779 36.1932C100.779 34.117 99.7595 32.6397 97.7227 31.7614C96.9704 31.4394 95.3972 31.2785 93.0008 31.2785H88.3925V41.2027H93.0008C95.3972 41.2027 97.2921 40.8713 98.6879 40.2084C100.081 39.5408 100.779 38.2008 100.779 36.1932Z" fill="black"/>
<path d="M125.415 34.4413C126.127 34.4413 126.881 34.555 127.676 34.7822C128.471 35.0095 129.176 35.3007 129.796 35.6535L127.705 41.4963C126.569 40.7837 125.531 40.4262 124.591 40.4262C123.328 40.4262 122.372 40.8571 121.724 41.7141C121.074 42.5734 120.646 43.7737 120.437 45.3126C120.229 46.8537 120.125 48.9063 120.125 51.4679V60.2179H113.463V35.0285H119.633V38.5701H119.737C120.544 37.2136 121.35 36.1885 122.16 35.4925C122.973 34.7917 124.057 34.4413 125.415 34.4413Z" fill="black"/>
<path d="M142.284 34.4413C146.301 34.4413 149.298 35.7482 151.274 38.3618C153.247 40.9707 154.235 44.6876 154.235 49.5171H137.515C137.584 51.2027 138.078 52.6563 139.001 53.8732C139.921 55.0853 141.258 55.6913 143.013 55.6913C144.11 55.6913 145.005 55.412 145.7 54.8485C146.4 54.2804 146.914 53.3973 147.243 52.197L153.895 53.3144C153.055 55.7766 151.695 57.6421 149.816 58.911C147.936 60.1752 145.634 60.805 142.909 60.805C138.859 60.805 135.798 59.5881 133.73 57.1497C132.758 56.0204 132.01 54.5976 131.487 52.8788C130.969 51.1554 130.711 49.4508 130.711 47.7652C130.711 45.4688 131.123 43.305 131.951 41.2785C132.777 39.2519 134.056 37.609 135.793 36.3447C137.527 35.0758 139.691 34.4413 142.284 34.4413ZM137.666 45.4357H147.631C147.597 43.3902 147.086 41.8987 146.098 40.9565C145.106 40.0166 143.95 39.5455 142.625 39.5455C141.066 39.5455 139.848 40.109 138.972 41.2311C138.102 42.3485 137.666 43.75 137.666 45.4357Z" fill="black"/>
<path d="M161.232 38.2387C163.402 35.7079 166.479 34.4413 170.468 34.4413C176.46 34.4413 180.2 37.1165 181.69 42.4622L175.133 43.6364C174.584 40.9731 173.061 39.6402 170.562 39.6402C168.878 39.6402 167.539 40.225 166.55 41.3921C165.566 42.5616 165.074 44.4579 165.074 47.0834C165.074 49.6473 165.493 51.6667 166.333 53.144C167.177 54.6165 168.623 55.3504 170.666 55.3504C171.991 55.3504 173.051 54.9574 173.846 54.1667C174.641 53.3713 175.183 52.1639 175.473 50.5398L182.031 51.6572C180.673 57.7557 176.772 60.805 170.326 60.805C166.503 60.805 163.553 59.6378 161.478 57.3012C160.404 56.1033 159.595 54.6449 159.046 52.9262C158.498 51.2027 158.223 49.4366 158.223 47.6232C158.223 45.7434 158.481 43.9915 158.999 42.3675C159.515 40.7458 160.26 39.3703 161.232 38.2387Z" fill="black"/>
<path d="M188.886 27.197C189.534 26.3826 190.376 25.7837 191.412 25.3978C192.446 25.0072 193.726 24.8107 195.254 24.8107C197.133 24.8107 198.978 25.0853 200.79 25.6345L199.919 30.3031C198.784 30.045 197.762 29.9148 196.853 29.9148C195.817 29.9148 195.105 30.1681 194.715 30.6724C194.329 31.1719 194.138 31.9106 194.138 32.8883V35.0285H199.143V40.322H194.138V60.2179H187.476V40.322H183.786V35.0285H187.476V32.5474C187.476 30.1492 187.944 28.3665 188.886 27.197Z" fill="black"/>
<path d="M212.8 52.9262H212.894L218.723 35.0285H225.621L216.736 59.2898L216.149 60.9944C215.302 63.3618 214.55 65.1516 213.888 66.3637C213.225 67.5805 212.253 68.563 210.973 69.3088C209.691 70.0592 207.936 70.4356 205.703 70.4356C204.371 70.4356 203.105 70.3031 201.908 70.0379L201.321 64.8391C202.457 65.0332 203.379 65.1326 204.094 65.1326C205.487 65.1326 206.564 64.7657 207.321 64.0341C208.082 63.3073 208.742 62.0502 209.298 60.2652L199.722 35.0285H206.819L212.8 52.9262Z" fill="black"/>
</svg>
