<svg width="2600" height="1144" viewBox="0 0 2600 1144" fill="none" xmlns="http://www.w3.org/2000/svg">
<path d="M18.0374 454.323H242.64V678.898H18.0374V454.323Z" fill="#2525EA"/>
<path d="M691.817 678.898H467.215V454.323H691.817V678.898Z" fill="#02257A"/>
<path d="M242.667 454.323L467.242 229.721V454.323L242.667 678.898V454.323Z" fill="#A6A6F1"/>
<path d="M467.242 678.898L242.667 903.5V678.898L467.242 454.323V678.898Z" fill="#6C6CEC"/>
<path d="M18.0374 454.323L467.215 5.14581V229.748L242.64 454.323H18.0374Z" fill="#4B4BE5"/>
<path d="M691.817 678.898L242.64 1128.07V903.5L467.215 678.898H691.817Z" fill="#1212C1"/>
<path d="M1167.75 299.976C1187.74 308.507 1204.2 322.048 1217.15 340.601C1230.15 359.18 1236.65 383.284 1236.65 412.967C1236.65 441.865 1230.26 465.888 1217.48 485.009C1204.69 504.076 1188.47 517.698 1168.83 525.851C1148.82 534.382 1116.89 538.634 1073.07 538.634H1011.97V688.892H931.8V290.551H1070.36C1095.93 290.551 1116.29 291.201 1131.46 292.501C1146.68 293.801 1158.79 296.292 1167.75 299.976ZM1153.78 414.051C1153.78 390.298 1142.1 373.398 1118.78 363.351C1110.17 359.667 1092.16 357.826 1064.73 357.826H1011.97V471.359H1064.73C1092.16 471.359 1113.85 467.567 1129.83 459.984C1145.79 452.346 1153.78 437.017 1153.78 414.051Z" fill="black"/>
<path d="M1435.82 394.009C1443.97 394.009 1452.61 395.309 1461.71 397.909C1470.81 400.509 1478.88 403.84 1485.98 407.876L1462.03 474.717C1449.03 466.565 1437.14 462.476 1426.39 462.476C1411.93 462.476 1400.99 467.405 1393.57 477.209C1386.12 487.04 1381.22 500.771 1378.83 518.376C1376.45 536.007 1375.26 559.488 1375.26 588.792V688.892H1298.99V400.726H1369.63V441.242H1370.82C1380.05 425.723 1389.29 413.996 1398.55 406.034C1407.87 398.017 1420.27 394.009 1435.82 394.009Z" fill="black"/>
<path d="M1628.95 394.009C1674.94 394.009 1709.25 408.959 1731.87 438.859C1754.45 468.705 1765.77 511.226 1765.77 566.476H1574.35C1575.13 585.759 1580.8 602.388 1591.36 616.309C1601.89 630.176 1617.2 637.109 1637.29 637.109C1649.86 637.109 1660.1 633.913 1668.06 627.467C1676.07 620.967 1681.95 610.865 1685.72 597.134L1761.87 609.917C1752.26 638.084 1736.69 659.426 1715.18 673.942C1693.65 688.405 1667.3 695.609 1636.1 695.609C1589.73 695.609 1554.69 681.688 1531.02 653.792C1519.88 640.873 1511.33 624.596 1505.34 604.934C1499.41 585.217 1496.46 565.717 1496.46 546.434C1496.46 520.163 1501.17 495.409 1510.65 472.226C1520.1 449.042 1534.75 430.246 1554.63 415.784C1574.48 401.267 1599.27 394.009 1628.95 394.009ZM1576.08 519.784H1690.16C1689.78 496.384 1683.93 479.321 1672.61 468.542C1661.26 457.79 1648.02 452.401 1632.85 452.401C1615 452.401 1601.05 458.846 1591.03 471.684C1581.07 484.467 1576.08 500.501 1576.08 519.784Z" fill="black"/>
<path d="M1845.88 437.451C1870.71 408.498 1905.95 394.009 1951.61 394.009C2020.21 394.009 2063.03 424.613 2080.09 485.767L2005.02 499.201C1998.74 468.732 1981.29 453.484 1952.69 453.484C1933.41 453.484 1918.08 460.173 1906.76 473.526C1895.49 486.905 1889.86 508.598 1889.86 538.634C1889.86 567.965 1894.65 591.067 1904.27 607.967C1913.94 624.813 1930.49 633.209 1953.89 633.209C1969.05 633.209 1981.19 628.713 1990.29 619.667C1999.39 610.567 2005.59 596.755 2008.92 578.176L2083.99 590.959C2068.45 660.726 2023.79 695.609 1949.99 695.609C1906.22 695.609 1872.45 682.257 1848.69 655.526C1836.4 641.821 1827.14 625.138 1820.85 605.476C1814.57 585.759 1811.43 565.555 1811.43 544.809C1811.43 523.305 1814.38 503.263 1820.31 484.684C1826.21 466.132 1834.75 450.396 1845.88 437.451Z" fill="black"/>
<path d="M2162.47 311.134C2169.89 301.817 2179.53 294.965 2191.4 290.551C2203.23 286.082 2217.88 283.834 2235.38 283.834C2256.88 283.834 2278.01 286.976 2298.75 293.259L2288.79 346.667C2275.79 343.715 2264.09 342.226 2253.69 342.226C2241.83 342.226 2233.67 345.124 2229.2 350.892C2224.79 356.607 2222.6 365.057 2222.6 376.242V400.726H2279.9V461.284H2222.6V688.892H2146.33V461.284H2104.08V400.726H2146.33V372.342C2146.33 344.907 2151.69 324.513 2162.47 311.134Z" fill="black"/>
<path d="M2436.25 605.476H2437.33L2504.06 400.726H2583.04L2481.31 678.276L2474.6 697.776C2464.9 724.859 2456.29 745.334 2448.71 759.201C2441.12 773.121 2429.99 784.361 2415.34 792.892C2400.66 801.478 2380.56 805.784 2355 805.784C2339.75 805.784 2325.26 804.267 2311.56 801.234L2304.84 741.759C2317.84 743.98 2328.4 745.117 2336.58 745.117C2352.53 745.117 2364.86 740.919 2373.52 732.551C2382.24 724.236 2389.8 709.855 2396.16 689.434L2286.53 400.726H2367.78L2436.25 605.476Z" fill="black"/>
</svg>
