<svg width="160" height="24" viewBox="0 0 160 24" fill="none" xmlns="http://www.w3.org/2000/svg">
<g clip-path="url(#clip0_9_4)">
<path d="M0.378418 9.53125H5.09035V14.2426H0.378418V9.53125Z" fill="#2525EA"/>
<path d="M14.5136 14.2426H9.8017V9.53125H14.5136V14.2426Z" fill="#02257A"/>
<path d="M5.09091 9.53125L9.80228 4.81932V9.53125L5.09091 14.2426V9.53125Z" fill="#A6A6F1"/>
<path d="M9.80228 14.2426L5.09091 18.9545V14.2426L9.80228 9.53125V14.2426Z" fill="#6C6CEC"/>
<path d="M0.378418 9.53125L9.80171 0.107956V4.81989L5.09035 9.53125H0.378418Z" fill="#4B4BE5"/>
<path d="M14.5136 14.2426L5.09033 23.6659V18.9545L9.8017 14.2426H14.5136Z" fill="#1212C1"/>
<path d="M24.4983 6.29319C24.9176 6.47217 25.2631 6.75626 25.5346 7.14547C25.8074 7.53524 25.9437 8.04092 25.9437 8.66365C25.9437 9.2699 25.8096 9.77388 25.5415 10.175C25.2733 10.575 24.9329 10.8608 24.521 11.0318C24.1011 11.2108 23.4312 11.3 22.5119 11.3H21.2301V14.4523H19.5483V6.09547H22.4551C22.9915 6.09547 23.4187 6.1091 23.7369 6.13638C24.0562 6.16365 24.3102 6.21592 24.4983 6.29319ZM24.2051 8.68638C24.2051 8.18808 23.9602 7.83353 23.471 7.62274C23.2903 7.54547 22.9125 7.50683 22.3369 7.50683H21.2301V9.88865H22.3369C22.9125 9.88865 23.3676 9.8091 23.7028 9.65001C24.0375 9.48978 24.2051 9.16819 24.2051 8.68638Z" fill="black"/>
<path d="M30.122 8.26592C30.2931 8.26592 30.4743 8.2932 30.6652 8.34774C30.8561 8.40229 31.0255 8.47217 31.1743 8.55683L30.672 9.9591C30.3993 9.78808 30.1499 9.70229 29.9243 9.70229C29.6209 9.70229 29.3914 9.8057 29.2357 10.0114C29.0794 10.2176 28.9766 10.5057 28.9266 10.875C28.8766 11.2449 28.8516 11.7375 28.8516 12.3523V14.4523H27.2516V8.40683H28.7334V9.25683H28.7584C28.9522 8.93126 29.1459 8.68524 29.3402 8.5182C29.5357 8.35001 29.7959 8.26592 30.122 8.26592Z" fill="black"/>
<path d="M34.1738 8.26592C35.1385 8.26592 35.8584 8.57956 36.3329 9.20683C36.8067 9.83297 37.0442 10.725 37.0442 11.8841H33.0283C33.0448 12.2887 33.1635 12.6375 33.3851 12.9296C33.6062 13.2205 33.9272 13.3659 34.3488 13.3659C34.6124 13.3659 34.8272 13.2989 34.9942 13.1637C35.1624 13.0273 35.2857 12.8154 35.3647 12.5273L36.9624 12.7955C36.7607 13.3864 36.434 13.8341 35.9829 14.1387C35.5312 14.4421 34.9783 14.5932 34.3238 14.5932C33.351 14.5932 32.6158 14.3012 32.1192 13.7159C31.8857 13.4449 31.7062 13.1034 31.5806 12.6909C31.4562 12.2773 31.3942 11.8682 31.3942 11.4637C31.3942 10.9125 31.4931 10.3932 31.692 9.90683C31.8902 9.42047 32.1976 9.02615 32.6147 8.72274C33.0312 8.4182 33.551 8.26592 34.1738 8.26592ZM33.0647 10.9046H35.4579C35.4499 10.4136 35.3272 10.0557 35.0897 9.82956C34.8516 9.60399 34.5738 9.49092 34.2556 9.49092C33.8812 9.49092 33.5885 9.62615 33.3783 9.89547C33.1692 10.1636 33.0647 10.5 33.0647 10.9046Z" fill="black"/>
<path d="M38.7247 9.17729C39.2457 8.5699 39.9849 8.26592 40.9429 8.26592C42.3821 8.26592 43.2804 8.90797 43.6383 10.1909L42.0633 10.4727C41.9315 9.83354 41.5656 9.51365 40.9656 9.51365C40.5611 9.51365 40.2395 9.65399 40.002 9.9341C39.7656 10.2148 39.6474 10.6699 39.6474 11.3C39.6474 11.9154 39.748 12.4 39.9497 12.7546C40.1526 13.108 40.4997 13.2841 40.9906 13.2841C41.3088 13.2841 41.5633 13.1898 41.7543 13C41.9452 12.8091 42.0753 12.5193 42.1452 12.1296L43.7202 12.3977C43.394 13.8614 42.4571 14.5932 40.9088 14.5932C39.9906 14.5932 39.2821 14.3131 38.7838 13.7523C38.5258 13.4648 38.3315 13.1148 38.1997 12.7023C38.0679 12.2887 38.002 11.8648 38.002 11.4296C38.002 10.9784 38.0639 10.558 38.1883 10.1682C38.3122 9.77899 38.4912 9.44888 38.7247 9.17729Z" fill="black"/>
<path d="M45.3665 6.52729C45.5222 6.33183 45.7245 6.18808 45.9734 6.09547C46.2217 6.00172 46.529 5.95456 46.8961 5.95456C47.3472 5.95456 47.7904 6.02047 48.2256 6.15229L48.0165 7.27274C47.7438 7.21081 47.4984 7.17956 47.2802 7.17956C47.0313 7.17956 46.8603 7.24035 46.7665 7.36138C46.6739 7.48126 46.6279 7.65854 46.6279 7.8932V8.40683H47.8302V9.67729H46.6279V14.4523H45.0279V9.67729H44.1415V8.40683H45.0279V7.81138C45.0279 7.23581 45.1404 6.80797 45.3665 6.52729Z" fill="black"/>
<path d="M51.1101 12.7023H51.1328L52.5328 8.40683H54.1896L52.0555 14.2296L51.9146 14.6386C51.7112 15.2068 51.5305 15.6364 51.3714 15.9273C51.2124 16.2193 50.9788 16.4551 50.6714 16.6341C50.3635 16.8142 49.9419 16.9046 49.4055 16.9046C49.0857 16.9046 48.7817 16.8727 48.4942 16.8091L48.3533 15.5614C48.626 15.608 48.8476 15.6318 49.0192 15.6318C49.3538 15.6318 49.6124 15.5438 49.7942 15.3682C49.9771 15.1938 50.1357 14.8921 50.2692 14.4636L47.9692 8.40683H49.6737L51.1101 12.7023Z" fill="black"/>
</g>
<defs>
<clipPath id="clip0_9_4">
<rect width="54.5455" height="24" fill="white"/>
</clipPath>
</defs>
</svg>
