<svg width="160" height="24" viewBox="0 0 160 24" fill="none" xmlns="http://www.w3.org/2000/svg">
<path d="M26.8493 0.742213C27.7684 1.13449 28.5255 1.75716 29.1208 2.61021C29.7186 3.4645 30.0174 4.57285 30.0174 5.93773C30.0174 7.2665 29.7235 8.37111 29.1357 9.25031C28.5479 10.127 27.802 10.7534 26.8991 11.1283C25.9788 11.5205 24.5106 11.7161 22.4956 11.7161H19.6862V18.6252H16V0.308838H22.3711C23.5467 0.308838 24.4832 0.338726 25.1806 0.398502C25.8805 0.458278 26.4371 0.572848 26.8493 0.742213ZM26.2067 5.98754C26.2067 4.89539 25.67 4.1183 24.5978 3.65629C24.2017 3.48692 23.3736 3.40224 22.1121 3.40224H19.6862V8.62266H22.1121C23.3736 8.62266 24.3711 8.44832 25.1059 8.09962C25.8394 7.74844 26.2067 7.04358 26.2067 5.98754Z" fill="black"/>
<path d="M39.1754 5.066C39.5502 5.066 39.9475 5.12578 40.3659 5.24533C40.7843 5.36488 41.1555 5.51806 41.4817 5.70361L40.3809 8.77709C39.7831 8.40224 39.2364 8.2142 38.742 8.2142C38.077 8.2142 37.5739 8.44085 37.2327 8.89166C36.8902 9.34371 36.6648 9.97509 36.5552 10.7846C36.4456 11.5953 36.3908 12.675 36.3908 14.0224V18.6252H32.884V5.37484H36.1318V7.23786H36.1866C36.6112 6.52428 37.0359 5.98506 37.4618 5.61893C37.8902 5.25031 38.4606 5.066 39.1754 5.066Z" fill="black"/>
<path d="M48.0559 5.066C50.1704 5.066 51.7483 5.75342 52.7881 7.12827C53.8267 8.50062 54.3473 10.4558 54.3473 12.9963H45.5453C45.5814 13.8829 45.8417 14.6476 46.3274 15.2877C46.8118 15.9253 47.5154 16.2441 48.4394 16.2441C49.0173 16.2441 49.488 16.0971 49.8541 15.8007C50.2227 15.5019 50.493 15.0374 50.6661 14.406L54.168 14.9938C53.7259 16.2889 53.0098 17.2702 52.021 17.9377C51.031 18.6027 49.8193 18.934 48.3846 18.934C46.2526 18.934 44.6412 18.2939 43.5528 17.0112C43.0409 16.4172 42.6474 15.6687 42.3722 14.7646C42.0995 13.858 41.9637 12.9614 41.9637 12.0747C41.9637 10.8668 42.1804 9.72852 42.6163 8.66252C43.0509 7.59651 43.7246 6.73225 44.6387 6.06725C45.5515 5.39975 46.691 5.066 48.0559 5.066ZM45.625 10.8493H50.8703C50.8529 9.77335 50.5839 8.98879 50.0633 8.49315C49.5415 7.99875 48.9326 7.75093 48.2352 7.75093C47.4145 7.75093 46.7732 8.04732 46.3124 8.63761C45.8541 9.22541 45.625 9.96264 45.625 10.8493Z" fill="black"/>
<path d="M58.0305 7.06351C59.1725 5.73225 60.7927 5.066 62.8923 5.066C66.0467 5.066 68.0156 6.47322 68.8002 9.28518L65.3481 9.90286C65.0592 8.50187 64.2572 7.80075 62.9421 7.80075C62.0554 7.80075 61.3506 8.10834 60.83 8.72229C60.312 9.33749 60.0529 10.335 60.0529 11.7161C60.0529 13.0648 60.2734 14.127 60.7155 14.9041C61.16 15.6787 61.9209 16.0648 62.9969 16.0648C63.6943 16.0648 64.2522 15.858 64.6706 15.4421C65.0891 15.0237 65.3742 14.3885 65.5274 13.5342L68.9795 14.122C68.2647 17.33 66.2111 18.934 62.8176 18.934C60.8051 18.934 59.2522 18.3201 58.16 17.0909C57.5947 16.4608 57.1688 15.6937 56.8798 14.7895C56.5909 13.8829 56.4465 12.9539 56.4465 12C56.4465 11.0112 56.5822 10.0897 56.8549 9.23537C57.1264 8.38232 57.5187 7.65878 58.0305 7.06351Z" fill="black"/>
<path d="M72.588 1.25529C72.9292 0.826899 73.3725 0.511831 73.918 0.308842C74.4622 0.103362 75.1359 0 75.9404 0C76.9292 0 77.9006 0.144458 78.8545 0.433375L78.3962 2.88917C77.7984 2.75343 77.2605 2.68493 76.7822 2.68493C76.2368 2.68493 75.862 2.81818 75.6565 3.08344C75.4535 3.3462 75.3526 3.73475 75.3526 4.24907V5.37485H77.9877V8.1594H75.3526V18.6252H71.8458V8.1594H69.903V5.37485H71.8458V4.06974C71.8458 2.80822 72.0923 1.87049 72.588 1.25529Z" fill="black"/>
<path d="M85.1766 14.7895H85.2264L88.2949 5.37484H91.9263L87.2488 18.137L86.94 19.0336C86.4941 20.279 86.0981 21.2204 85.7494 21.858C85.4007 22.4981 84.8889 23.0149 84.2152 23.4072C83.5402 23.802 82.6162 24 81.4406 24C80.7395 24 80.0732 23.9303 79.4431 23.7908L79.1342 21.056C79.732 21.1582 80.2177 21.2105 80.5938 21.2105C81.3273 21.2105 81.8939 21.0174 82.2924 20.6326C82.6934 20.2503 83.0408 19.589 83.3335 18.6501L78.2924 5.37484H82.0284L85.1766 14.7895Z" fill="black"/>
<path d="M0.378418 9.53125H5.09035V14.2426H0.378418V9.53125Z" fill="#2525EA"/>
<path d="M14.5136 14.2426H9.8017V9.53125H14.5136V14.2426Z" fill="#02257A"/>
<path d="M5.09091 9.53125L9.80228 4.81932V9.53125L5.09091 14.2426V9.53125Z" fill="#A6A6F1"/>
<path d="M9.80228 14.2426L5.09091 18.9545V14.2426L9.80228 9.53125V14.2426Z" fill="#6C6CEC"/>
<path d="M0.378418 9.53125L9.80171 0.107956V4.81989L5.09035 9.53125H0.378418Z" fill="#4B4BE5"/>
<path d="M14.5136 14.2426L5.09033 23.6659V18.9545L9.8017 14.2426H14.5136Z" fill="#1212C1"/>
</svg>
