<svg width="160" height="24" viewBox="0 0 160 24" fill="none" xmlns="http://www.w3.org/2000/svg">
<path d="M28.8594 3.60608C29.6098 3.9264 30.2281 4.43486 30.7142 5.13145C31.2023 5.82905 31.4464 6.7341 31.4464 7.84864C31.4464 8.93369 31.2064 9.83569 30.7264 10.5536C30.2464 11.2695 29.6373 11.781 28.9 12.0871C28.1485 12.4075 26.9496 12.5671 25.3042 12.5671H23.0101V18.209H20V3.25219H25.2025C26.1625 3.25219 26.9272 3.2766 27.4967 3.32541C28.0682 3.37422 28.5228 3.46778 28.8594 3.60608ZM28.3346 7.88932C28.3346 6.99748 27.8963 6.36293 27.0208 5.98565C26.6974 5.84735 26.0211 5.7782 24.991 5.7782H23.0101V10.0411H24.991C26.0211 10.0411 26.8357 9.89874 27.4357 9.614C28.0346 9.32723 28.3346 8.75166 28.3346 7.88932Z" fill="black"/>
<path d="M38.9246 7.13681C39.2307 7.13681 39.5551 7.18562 39.8968 7.28324C40.2384 7.38087 40.5415 7.50595 40.8079 7.65747L39.909 10.1672C39.4208 9.86112 38.9744 9.70756 38.5707 9.70756C38.0277 9.70756 37.6168 9.89264 37.3382 10.2608C37.0586 10.6299 36.8745 11.1455 36.785 11.8065C36.6955 12.4685 36.6508 13.3502 36.6508 14.4505V18.209H33.7871V7.389H36.4393V8.9103H36.484C36.8308 8.32761 37.1775 7.88729 37.5253 7.58832C37.8751 7.28731 38.3409 7.13681 38.9246 7.13681Z" fill="black"/>
<path d="M46.1762 7.13681C47.9029 7.13681 49.1914 7.69814 50.0405 8.82082C50.8886 9.94146 51.3137 11.538 51.3137 13.6125H44.1261C44.1556 14.3366 44.3681 14.9609 44.7647 15.4836C45.1603 16.0043 45.7349 16.2646 46.4894 16.2646C46.9613 16.2646 47.3457 16.1446 47.6446 15.9026C47.9457 15.6585 48.1663 15.2792 48.3077 14.7637L51.1672 15.2436C50.8062 16.3012 50.2215 17.1026 49.4141 17.6476C48.6056 18.1907 47.6162 18.4612 46.4447 18.4612C44.7037 18.4612 43.3878 17.9385 42.4991 16.891C42.0811 16.406 41.7598 15.7948 41.535 15.0565C41.3123 14.3162 41.2015 13.584 41.2015 12.86C41.2015 11.8736 41.3784 10.9441 41.7343 10.0737C42.0892 9.20318 42.6394 8.49744 43.3858 7.95441C44.1312 7.40934 45.0617 7.13681 46.1762 7.13681ZM44.1912 11.8594H48.4744C48.4602 10.9807 48.2406 10.3401 47.8155 9.93535C47.3894 9.53164 46.8921 9.32927 46.3227 9.32927C45.6525 9.32927 45.1288 9.5713 44.7525 10.0533C44.3783 10.5333 44.1912 11.1353 44.1912 11.8594Z" fill="black"/>
<path d="M54.3213 8.76794C55.2539 7.68086 56.5769 7.13681 58.2914 7.13681C60.8672 7.13681 62.475 8.28592 63.1156 10.5821L60.2967 11.0865C60.0608 9.94247 59.4059 9.36995 58.3321 9.36995C57.608 9.36995 57.0324 9.62113 56.6074 10.1225C56.1843 10.6248 55.9728 11.4394 55.9728 12.5671C55.9728 13.6684 56.1528 14.5359 56.5138 15.1704C56.8769 15.8029 57.4982 16.1182 58.3768 16.1182C58.9463 16.1182 59.4018 15.9494 59.7435 15.6097C60.0852 15.2681 60.3181 14.7494 60.4432 14.0518L63.2621 14.5318C62.6783 17.1514 61.0015 18.4612 58.2304 18.4612C56.587 18.4612 55.3189 17.9598 54.4271 16.9561C53.9654 16.4416 53.6176 15.8152 53.3817 15.0769C53.1458 14.3366 53.0278 13.5779 53.0278 12.799C53.0278 11.9916 53.1387 11.239 53.3614 10.5414C53.5831 9.84485 53.9034 9.25402 54.3213 8.76794Z" fill="black"/>
<path d="M66.2087 4.02505C66.4873 3.67523 66.8494 3.41795 67.2948 3.25219C67.7392 3.0844 68.2893 3 68.9462 3C69.7537 3 70.5469 3.11796 71.3258 3.35389L70.9516 5.35924C70.4635 5.2484 70.0242 5.19247 69.6337 5.19247C69.1883 5.19247 68.8822 5.30128 68.7144 5.51788C68.5486 5.73245 68.4663 6.04973 68.4663 6.46971V7.389H70.618V9.66282H68.4663V18.209H65.6026V9.66282H64.0162V7.389H65.6026V6.32328C65.6026 5.29314 65.804 4.5274 66.2087 4.02505Z" fill="black"/>
<path d="M76.4884 15.0769H76.529L79.0347 7.389H82L78.1805 17.8103L77.9283 18.5425C77.5642 19.5594 77.2409 20.3282 76.9561 20.8489C76.6714 21.3716 76.2534 21.7936 75.7033 22.1139C75.1521 22.4363 74.3976 22.598 73.4376 22.598C72.8651 22.598 72.321 22.541 71.8065 22.4271L71.5543 20.194C72.0424 20.2774 72.439 20.3201 72.7461 20.3201C73.3451 20.3201 73.8078 20.1625 74.1332 19.8482C74.4606 19.536 74.7443 18.9961 74.9833 18.2293L70.8669 7.389H73.9176L76.4884 15.0769Z" fill="black"/>
<path d="M0.378418 9.53125H5.09035V14.2426H0.378418V9.53125Z" fill="#2525EA"/>
<path d="M14.5136 14.2426H9.8017V9.53125H14.5136V14.2426Z" fill="#02257A"/>
<path d="M5.09091 9.53125L9.80228 4.81932V9.53125L5.09091 14.2426V9.53125Z" fill="#A6A6F1"/>
<path d="M9.80228 14.2426L5.09091 18.9545V14.2426L9.80228 9.53125V14.2426Z" fill="#6C6CEC"/>
<path d="M0.378418 9.53125L9.80171 0.107956V4.81989L5.09035 9.53125H0.378418Z" fill="#4B4BE5"/>
<path d="M14.5136 14.2426L5.09033 23.6659V18.9545L9.8017 14.2426H14.5136Z" fill="#1212C1"/>
</svg>
