<svg width="500" height="333" viewBox="0 0 500 333" fill="none" xmlns="http://www.w3.org/2000/svg">
<path d="M3.46875 156.435H46.6615V199.655H3.46875V156.435Z" fill="#2525EA"/>
<path d="M133.042 199.655H89.8489V156.435H133.042V199.655Z" fill="#02257A"/>
<path d="M46.6667 156.435L89.8542 113.21V156.435L46.6667 199.655V156.435Z" fill="#A6A6F1"/>
<path d="M89.8542 199.655L46.6667 242.88V199.655L89.8542 156.435V199.655Z" fill="#6C6CEC"/>
<path d="M3.46875 156.435L89.849 69.9903V113.215L46.6615 156.435H3.46875Z" fill="#4B4BE5"/>
<path d="M133.042 199.655L46.6614 286.1V242.88L89.8489 199.655H133.042Z" fill="#1212C1"/>
<path d="M224.567 126.731C228.411 128.373 231.578 130.979 234.067 134.549C236.567 138.125 237.817 142.764 237.817 148.476C237.817 154.038 236.588 158.661 234.13 162.341C231.672 166.01 228.552 168.632 224.776 170.201C220.927 171.843 214.786 172.661 206.359 172.661H194.609V201.578H179.192V124.917H205.838C210.755 124.917 214.672 125.042 217.588 125.292C220.515 125.542 222.843 126.022 224.567 126.731ZM221.88 148.685C221.88 144.114 219.635 140.861 215.151 138.927C213.494 138.219 210.031 137.864 204.755 137.864H194.609V159.714H204.755C210.031 159.714 214.203 158.984 217.276 157.525C220.343 156.055 221.88 153.105 221.88 148.685Z" fill="black"/>
<path d="M276.119 144.828C277.686 144.828 279.348 145.078 281.098 145.578C282.848 146.079 284.4 146.72 285.765 147.496L281.16 160.36C278.66 158.791 276.374 158.004 274.306 158.004C271.525 158.004 269.421 158.953 267.994 160.84C266.561 162.732 265.619 165.374 265.16 168.762C264.702 172.155 264.473 176.674 264.473 182.314V201.578H249.806V146.12H263.39V153.918H263.619C265.395 150.931 267.171 148.674 268.952 147.142C270.744 145.599 273.129 144.828 276.119 144.828Z" fill="black"/>
<path d="M313.26 144.828C322.103 144.828 328.702 147.705 333.051 153.459C337.395 159.203 339.572 167.386 339.572 178.019H302.76C302.911 181.73 303.999 184.931 306.03 187.61C308.056 190.278 310.999 191.613 314.864 191.613C317.28 191.613 319.249 190.998 320.78 189.757C322.322 188.506 323.452 186.562 324.176 183.919L338.822 186.38C336.973 191.8 333.978 195.907 329.843 198.701C325.702 201.485 320.635 202.871 314.635 202.871C305.718 202.871 298.978 200.192 294.426 194.823C292.286 192.337 290.64 189.205 289.489 185.42C288.348 181.626 287.78 177.873 287.78 174.162C287.78 169.106 288.687 164.342 290.51 159.881C292.327 155.419 295.145 151.802 298.968 149.018C302.786 146.225 307.551 144.828 313.26 144.828ZM303.093 169.033H325.03C324.957 164.53 323.832 161.246 321.655 159.172C319.473 157.102 316.926 156.065 314.01 156.065C310.577 156.065 307.895 157.306 305.968 159.776C304.051 162.236 303.093 165.322 303.093 169.033Z" fill="black"/>
<path d="M354.976 153.188C359.752 147.616 366.529 144.828 375.31 144.828C388.502 144.828 396.737 150.717 400.018 162.487L385.581 165.072C384.372 159.208 381.018 156.274 375.518 156.274C371.81 156.274 368.862 157.561 366.685 160.131C364.518 162.706 363.435 166.881 363.435 172.661C363.435 178.306 364.357 182.752 366.206 186.004C368.065 189.246 371.247 190.862 375.747 190.862C378.664 190.862 380.997 189.997 382.747 188.256C384.497 186.505 385.69 183.846 386.331 180.271L400.768 182.731C397.779 196.158 389.19 202.871 374.997 202.871C366.581 202.871 360.086 200.301 355.518 195.157C353.154 192.52 351.372 189.309 350.164 185.525C348.956 181.73 348.351 177.842 348.351 173.849C348.351 169.711 348.919 165.854 350.06 162.278C351.195 158.708 352.836 155.68 354.976 153.188Z" fill="black"/>
<path d="M415.86 128.878C417.287 127.085 419.141 125.767 421.422 124.917C423.698 124.057 426.516 123.624 429.881 123.624C434.016 123.624 438.079 124.229 442.068 125.438L440.152 135.717C437.652 135.149 435.402 134.862 433.402 134.862C431.12 134.862 429.553 135.42 428.693 136.53C427.844 137.63 427.422 139.256 427.422 141.408V146.12H438.443V157.775H427.422V201.578H412.756V157.775H404.631V146.12H412.756V140.658C412.756 135.378 413.787 131.453 415.86 128.878Z" fill="black"/>
<path d="M468.509 185.525H468.718L481.551 146.12H496.738L477.176 199.535L475.884 203.288C474.02 208.5 472.363 212.441 470.905 215.109C469.447 217.788 467.306 219.952 464.488 221.593C461.665 223.246 457.801 224.074 452.884 224.074C449.952 224.074 447.165 223.782 444.53 223.199L443.238 211.753C445.738 212.18 447.77 212.399 449.343 212.399C452.41 212.399 454.78 211.591 456.447 209.981C458.124 208.38 459.577 205.613 460.801 201.683L439.718 146.12H455.343L468.509 185.525Z" fill="black"/>
</svg>
