<svg width="5000" height="2200" viewBox="0 0 5000 2200" fill="none" xmlns="http://www.w3.org/2000/svg">
<path d="M34.6874 873.698H466.614V1305.57H34.6874V873.698Z" fill="#2525EA"/>
<path d="M1330.42 1305.57H898.49V873.698H1330.42V1305.57Z" fill="#02257A"/>
<path d="M466.667 873.698L898.542 441.771V873.698L466.667 1305.57V873.698Z" fill="#A6A6F1"/>
<path d="M898.542 1305.57L466.667 1737.5V1305.57L898.542 873.698V1305.57Z" fill="#6C6CEC"/>
<path d="M34.6874 873.698L898.489 9.89581V441.823L466.614 873.698H34.6874Z" fill="#4B4BE5"/>
<path d="M1330.42 1305.57L466.615 2169.37V1737.5L898.489 1305.57H1330.42Z" fill="#1212C1"/>
<path d="M2245.67 576.876C2284.11 593.282 2315.78 619.324 2340.67 655.001C2365.67 690.73 2378.17 737.084 2378.17 794.168C2378.17 849.741 2365.88 895.939 2341.3 932.709C2316.72 969.376 2285.52 995.574 2247.76 1011.25C2209.27 1027.66 2147.86 1035.83 2063.59 1035.83H1946.09V1324.79H1791.92V558.751H2058.38C2107.55 558.751 2146.72 560.001 2175.88 562.501C2205.15 565.001 2228.43 569.793 2245.67 576.876ZM2218.8 796.251C2218.8 750.574 2196.35 718.074 2151.51 698.751C2134.94 691.668 2100.31 688.126 2047.55 688.126H1946.09V906.459H2047.55C2100.31 906.459 2142.03 899.168 2172.76 884.584C2203.43 869.897 2218.8 840.418 2218.8 796.251Z" fill="black"/>
<path d="M2761.19 757.709C2776.86 757.709 2793.48 760.209 2810.98 765.209C2828.48 770.209 2844 776.616 2857.65 784.376L2811.6 912.918C2786.6 897.241 2763.74 889.376 2743.06 889.376C2715.25 889.376 2694.21 898.855 2679.94 917.709C2665.61 936.616 2656.19 963.022 2651.6 996.876C2647.02 1030.78 2644.73 1075.94 2644.73 1132.29V1324.79H2498.06V770.626H2633.9V848.543H2636.19C2653.95 818.699 2671.71 796.147 2689.52 780.834C2707.44 765.418 2731.29 757.709 2761.19 757.709Z" fill="black"/>
<path d="M3132.6 757.709C3221.03 757.709 3287.02 786.459 3330.51 843.959C3373.95 901.355 3395.72 983.126 3395.72 1089.38H3027.6C3029.11 1126.46 3039.99 1158.44 3060.3 1185.21C3080.56 1211.88 3109.99 1225.21 3148.64 1225.21C3172.8 1225.21 3192.49 1219.06 3207.8 1206.67C3223.22 1194.17 3234.52 1174.74 3241.76 1148.33L3388.22 1172.92C3369.73 1227.08 3339.78 1268.13 3298.43 1296.04C3257.02 1323.86 3206.35 1337.71 3146.35 1337.71C3057.18 1337.71 2989.78 1310.94 2944.26 1257.29C2922.86 1232.45 2906.4 1201.15 2894.89 1163.33C2883.48 1125.42 2877.8 1087.92 2877.8 1050.83C2877.8 1000.31 2886.87 952.709 2905.1 908.126C2923.27 863.543 2951.45 827.397 2989.68 799.584C3027.86 771.668 3075.51 757.709 3132.6 757.709ZM3030.93 999.584H3250.3C3249.57 954.584 3238.32 921.772 3216.55 901.043C3194.73 880.366 3169.26 870.001 3140.1 870.001C3105.77 870.001 3078.95 882.397 3059.68 907.084C3040.51 931.668 3030.93 962.501 3030.93 999.584Z" fill="black"/>
<path d="M3549.76 841.251C3597.52 785.574 3665.28 757.709 3753.1 757.709C3885.02 757.709 3967.37 816.564 4000.18 934.168L3855.81 960.001C3843.72 901.407 3810.18 872.084 3755.18 872.084C3718.1 872.084 3688.62 884.949 3666.85 910.626C3645.18 936.355 3634.35 978.074 3634.35 1035.83C3634.35 1092.24 3643.57 1136.67 3662.06 1169.17C3680.65 1201.56 3712.47 1217.71 3757.47 1217.71C3786.64 1217.71 3809.97 1209.06 3827.47 1191.67C3844.97 1174.17 3856.9 1147.61 3863.31 1111.88L4007.68 1136.46C3977.78 1270.63 3891.9 1337.71 3749.97 1337.71C3665.81 1337.71 3600.86 1312.03 3555.18 1260.63C3531.53 1234.27 3513.72 1202.19 3501.64 1164.38C3489.56 1126.46 3483.51 1087.61 3483.51 1047.71C3483.51 1006.36 3489.19 967.814 3500.6 932.084C3511.95 896.407 3528.36 866.147 3549.76 841.251Z" fill="black"/>
<path d="M4158.6 598.334C4172.87 580.418 4191.41 567.241 4214.22 558.751C4236.98 550.157 4265.16 545.834 4298.81 545.834C4340.16 545.834 4380.79 551.876 4420.68 563.959L4401.52 666.668C4376.52 660.991 4354.02 658.126 4334.02 658.126C4311.2 658.126 4295.53 663.699 4286.93 674.793C4278.44 685.782 4274.22 702.032 4274.22 723.543V770.626H4384.43V887.084H4274.22V1324.79H4127.56V887.084H4046.31V770.626H4127.56V716.043C4127.56 663.282 4137.87 624.064 4158.6 598.334Z" fill="black"/>
<path d="M4685.09 1164.38H4687.17L4815.51 770.626H4967.38L4771.76 1304.38L4758.84 1341.88C4740.2 1393.96 4723.63 1433.33 4709.05 1460C4694.47 1486.77 4673.06 1508.39 4644.88 1524.79C4616.65 1541.3 4578.01 1549.58 4528.84 1549.58C4499.52 1549.58 4471.65 1546.67 4445.3 1540.83L4432.38 1426.46C4457.38 1430.73 4477.7 1432.92 4493.42 1432.92C4524.1 1432.92 4547.8 1424.84 4564.47 1408.75C4581.24 1392.76 4595.77 1365.11 4608.01 1325.83L4397.17 770.626H4553.42L4685.09 1164.38Z" fill="black"/>
</svg>
