<svg width="1300" height="572" viewBox="0 0 1300 572" fill="none" xmlns="http://www.w3.org/2000/svg">
<path d="M9.01874 227.161H121.32V339.449H9.01874V227.161Z" fill="#2525EA"/>
<path d="M345.908 339.449H233.607V227.161H345.908V339.449Z" fill="#02257A"/>
<path d="M121.333 227.161L233.621 114.86V227.161L121.333 339.449V227.161Z" fill="#A6A6F1"/>
<path d="M233.621 339.449L121.333 451.75V339.449L233.621 227.161V339.449Z" fill="#6C6CEC"/>
<path d="M9.01874 227.161L233.607 2.57288V114.874L121.32 227.161H9.01874Z" fill="#4B4BE5"/>
<path d="M345.908 339.449L121.32 564.037V451.75L233.607 339.449H345.908Z" fill="#1212C1"/>
<path d="M583.875 149.988C593.869 154.253 602.102 161.024 608.575 170.3C615.075 179.59 618.325 191.642 618.325 206.484C618.325 220.933 615.129 232.944 608.738 242.504C602.346 252.038 594.235 258.849 584.417 262.925C574.41 267.191 558.444 269.317 536.534 269.317H505.984V344.446H465.9V145.275H535.179C547.963 145.275 558.146 145.6 565.729 146.25C573.34 146.9 579.393 148.146 583.875 149.988ZM576.888 207.025C576.888 195.149 571.051 186.699 559.392 181.675C555.086 179.834 546.08 178.913 532.363 178.913H505.984V235.679H532.363C546.08 235.679 556.927 233.784 564.917 229.992C572.893 226.173 576.888 218.509 576.888 207.025Z" fill="black"/>
<path d="M717.909 197.004C721.985 197.004 726.304 197.654 730.854 198.954C735.404 200.254 739.44 201.92 742.988 203.938L731.017 237.359C724.517 233.283 718.572 231.238 713.196 231.238C705.965 231.238 700.494 233.702 696.784 238.604C693.06 243.52 690.609 250.386 689.417 259.188C688.225 268.003 687.629 279.744 687.629 294.396V344.446H649.496V200.363H684.813V220.621H685.409C690.026 212.862 694.644 206.998 699.275 203.017C703.934 199.009 710.136 197.004 717.909 197.004Z" fill="black"/>
<path d="M814.475 197.004C837.469 197.004 854.626 204.479 865.933 219.429C877.227 234.352 882.887 255.613 882.887 283.238H787.175C787.567 292.879 790.398 301.194 795.679 308.154C800.947 315.088 808.598 318.554 818.646 318.554C824.929 318.554 830.048 316.957 834.029 313.734C838.037 310.484 840.976 305.433 842.858 298.567L880.937 304.959C876.13 319.042 868.344 329.713 857.591 336.971C846.826 344.202 833.65 347.804 818.05 347.804C794.866 347.804 777.344 340.844 765.508 326.896C759.942 320.437 755.663 312.298 752.671 302.467C749.705 292.609 748.229 282.859 748.229 273.217C748.229 260.082 750.585 247.704 755.325 236.113C760.051 224.521 767.377 215.123 777.316 207.892C787.242 200.634 799.633 197.004 814.475 197.004ZM788.041 259.892H845.079C844.889 248.192 841.964 239.661 836.304 234.271C830.63 228.895 824.008 226.2 816.425 226.2C807.501 226.2 800.527 229.423 795.516 235.842C790.533 242.234 788.041 250.25 788.041 259.892Z" fill="black"/>
<path d="M922.939 218.725C935.356 204.249 952.974 197.004 975.805 197.004C1010.11 197.004 1031.52 212.307 1040.05 242.884L1002.51 249.6C999.368 234.366 990.647 226.742 976.347 226.742C966.705 226.742 959.041 230.087 953.38 236.763C947.747 243.452 944.93 254.299 944.93 269.317C944.93 283.983 947.327 295.534 952.134 303.984C956.969 312.407 965.243 316.604 976.943 316.604C984.526 316.604 990.593 314.357 995.143 309.834C999.693 305.284 1002.79 298.377 1004.46 289.088L1042 295.479C1034.22 330.363 1011.89 347.804 974.993 347.804C953.109 347.804 936.223 341.128 924.347 327.763C918.199 320.911 913.568 312.569 910.426 302.738C907.284 292.879 905.714 282.777 905.714 272.404C905.714 261.652 907.19 251.632 910.155 242.342C913.107 233.066 917.373 225.198 922.939 218.725Z" fill="black"/>
<path d="M1081.24 155.567C1084.95 150.909 1089.77 147.483 1095.7 145.275C1101.62 143.041 1108.94 141.917 1117.69 141.917C1128.44 141.917 1139 143.488 1149.38 146.629L1144.39 173.334C1137.89 171.858 1132.04 171.113 1126.84 171.113C1120.91 171.113 1116.84 172.562 1114.6 175.446C1112.4 178.303 1111.3 182.528 1111.3 188.121V200.363H1139.95V230.642H1111.3V344.446H1073.16V230.642H1052.04V200.363H1073.16V186.171C1073.16 172.453 1075.85 162.257 1081.24 155.567Z" fill="black"/>
<path d="M1218.12 302.738H1218.67L1252.03 200.363H1291.52L1240.66 339.138L1237.3 348.888C1232.45 362.429 1228.14 372.667 1224.35 379.6C1220.56 386.561 1215 392.181 1207.67 396.446C1200.33 400.739 1190.28 402.892 1177.5 402.892C1169.87 402.892 1162.63 402.134 1155.78 400.617L1152.42 370.879C1158.92 371.99 1164.2 372.559 1168.29 372.559C1176.27 372.559 1182.43 370.46 1186.76 366.275C1191.12 362.118 1194.9 354.927 1198.08 344.717L1143.27 200.363H1183.89L1218.12 302.738Z" fill="black"/>
</svg>
