<svg width="3000" height="1320" viewBox="0 0 3000 1320" fill="none" xmlns="http://www.w3.org/2000/svg">
<path d="M20.8125 524.219H279.969V783.344H20.8125V524.219Z" fill="#2525EA"/>
<path d="M798.25 783.344H539.094V524.219H798.25V783.344Z" fill="#02257A"/>
<path d="M280 524.219L539.125 265.062V524.219L280 783.344V524.219Z" fill="#A6A6F1"/>
<path d="M539.125 783.344L280 1042.5V783.344L539.125 524.219V783.344Z" fill="#6C6CEC"/>
<path d="M20.8125 524.219L539.094 5.93747V265.094L279.969 524.219H20.8125Z" fill="#4B4BE5"/>
<path d="M798.25 783.344L279.969 1301.62V1042.5L539.094 783.344H798.25Z" fill="#1212C1"/>
<path d="M1347.4 346.126C1370.47 355.969 1389.47 371.594 1404.4 393.001C1419.4 414.438 1426.9 442.251 1426.9 476.501C1426.9 509.844 1419.53 537.563 1404.78 559.626C1390.03 581.626 1371.31 597.344 1348.65 606.751C1325.56 616.594 1288.72 621.501 1238.15 621.501H1167.65V794.876H1075.15V335.251H1235.03C1264.53 335.251 1288.03 336.001 1305.53 337.501C1323.09 339.001 1337.06 341.876 1347.4 346.126ZM1331.28 477.751C1331.28 450.344 1317.81 430.844 1290.9 419.251C1280.97 415.001 1260.19 412.876 1228.53 412.876H1167.65V543.876H1228.53C1260.19 543.876 1285.22 539.501 1303.65 530.751C1322.06 521.938 1331.28 504.251 1331.28 477.751Z" fill="black"/>
<path d="M1656.71 454.626C1666.12 454.626 1676.09 456.126 1686.59 459.126C1697.09 462.126 1706.4 465.969 1714.59 470.626L1686.96 547.751C1671.96 538.344 1658.24 533.626 1645.84 533.626C1629.15 533.626 1616.52 539.313 1607.96 550.626C1599.37 561.969 1593.71 577.813 1590.96 598.126C1588.21 618.469 1586.84 645.563 1586.84 679.376V794.876H1498.84V462.376H1580.34V509.126H1581.71C1592.37 491.219 1603.02 477.688 1613.71 468.501C1624.46 459.251 1638.77 454.626 1656.71 454.626Z" fill="black"/>
<path d="M1879.56 454.626C1932.62 454.626 1972.21 471.876 1998.31 506.376C2024.37 540.813 2037.43 589.876 2037.43 653.626H1816.56C1817.46 675.876 1823.99 695.063 1836.18 711.126C1848.34 727.126 1865.99 735.126 1889.18 735.126C1903.68 735.126 1915.49 731.438 1924.68 724.001C1933.93 716.501 1940.71 704.844 1945.06 689.001L2032.93 703.751C2021.84 736.251 2003.87 760.876 1979.06 777.626C1954.21 794.313 1923.81 802.626 1887.81 802.626C1834.31 802.626 1793.87 786.563 1766.56 754.376C1753.71 739.469 1743.84 720.688 1736.93 698.001C1730.09 675.251 1726.68 652.751 1726.68 630.501C1726.68 600.188 1732.12 571.626 1743.06 544.876C1753.96 518.126 1770.87 496.438 1793.81 479.751C1816.71 463.001 1845.31 454.626 1879.56 454.626ZM1818.56 599.751H1950.18C1949.74 572.751 1942.99 553.063 1929.93 540.626C1916.84 528.219 1901.56 522.001 1884.06 522.001C1863.46 522.001 1847.37 529.438 1835.81 544.251C1824.31 559.001 1818.56 577.501 1818.56 599.751Z" fill="black"/>
<path d="M2129.86 504.751C2158.51 471.344 2199.17 454.626 2251.86 454.626C2331.01 454.626 2380.42 489.938 2400.11 560.501L2313.48 576.001C2306.23 540.844 2286.11 523.251 2253.11 523.251C2230.86 523.251 2213.17 530.969 2200.11 546.376C2187.11 561.813 2180.61 586.844 2180.61 621.501C2180.61 655.344 2186.14 682.001 2197.23 701.501C2208.39 720.938 2227.48 730.626 2254.48 730.626C2271.98 730.626 2285.98 725.438 2296.48 715.001C2306.98 704.501 2314.14 688.563 2317.98 667.126L2404.61 681.876C2386.67 762.376 2335.14 802.626 2249.98 802.626C2199.48 802.626 2160.51 787.219 2133.11 756.376C2118.92 740.563 2108.23 721.313 2100.98 698.626C2093.73 675.876 2090.11 652.563 2090.11 628.626C2090.11 603.813 2093.51 580.688 2100.36 559.251C2107.17 537.844 2117.01 519.688 2129.86 504.751Z" fill="black"/>
<path d="M2495.16 359.001C2503.72 348.251 2514.85 340.344 2528.53 335.251C2542.19 330.094 2559.1 327.501 2579.28 327.501C2604.1 327.501 2628.47 331.126 2652.41 338.376L2640.91 400.001C2625.91 396.594 2612.41 394.876 2600.41 394.876C2586.72 394.876 2577.32 398.219 2572.16 404.876C2567.07 411.469 2564.53 421.219 2564.53 434.126V462.376H2630.66V532.251H2564.53V794.876H2476.53V532.251H2427.78V462.376H2476.53V429.626C2476.53 397.969 2482.72 374.438 2495.16 359.001Z" fill="black"/>
<path d="M2811.05 698.626H2812.3L2889.3 462.376H2980.43L2863.05 782.626L2855.3 805.126C2844.12 836.376 2834.18 860.001 2825.43 876.001C2816.68 892.063 2803.84 905.032 2786.93 914.876C2769.99 924.782 2746.8 929.751 2717.3 929.751C2699.71 929.751 2682.99 928.001 2667.18 924.501L2659.43 855.876C2674.43 858.438 2686.62 859.751 2696.05 859.751C2714.46 859.751 2728.68 854.907 2738.68 845.251C2748.74 835.657 2757.46 819.063 2764.8 795.501L2638.3 462.376H2732.05L2811.05 698.626Z" fill="black"/>
</svg>
