<svg width="650" height="286" viewBox="0 0 650 286" fill="none" xmlns="http://www.w3.org/2000/svg">
<path d="M4.50937 113.581H60.6599V169.725H4.50937V113.581Z" fill="#2525EA"/>
<path d="M172.954 169.725H116.804V113.581H172.954V169.725Z" fill="#02257A"/>
<path d="M60.6667 113.581L116.81 57.4302V113.581L60.6667 169.725V113.581Z" fill="#A6A6F1"/>
<path d="M116.81 169.724L60.6667 225.875V169.724L116.81 113.581V169.724Z" fill="#6C6CEC"/>
<path d="M4.50937 113.581L116.804 1.28644V57.437L60.6599 113.581H4.50937Z" fill="#4B4BE5"/>
<path d="M172.954 169.724L60.6599 282.019V225.875L116.804 169.724H172.954Z" fill="#1212C1"/>
<path d="M291.938 74.9939C296.935 77.1267 301.051 80.5121 304.288 85.1501C307.538 89.7949 309.163 95.821 309.163 103.242C309.163 110.466 307.565 116.472 304.369 121.252C301.173 126.019 297.117 129.425 292.208 131.463C287.205 133.595 279.222 134.658 268.267 134.658H252.992V172.223H232.95V72.6376H267.59C273.981 72.6376 279.073 72.8001 282.865 73.1251C286.67 73.4501 289.696 74.0731 291.938 74.9939ZM288.444 103.513C288.444 97.5746 285.526 93.3496 279.696 90.8376C277.543 89.9168 273.04 89.4564 266.181 89.4564H252.992V117.84H266.181C273.04 117.84 278.464 116.892 282.458 114.996C286.446 113.087 288.444 109.254 288.444 103.513Z" fill="black"/>
<path d="M358.954 98.5022C360.992 98.5022 363.152 98.8272 365.427 99.4772C367.702 100.127 369.72 100.96 371.494 101.969L365.508 118.679C362.258 116.641 359.286 115.619 356.598 115.619C352.982 115.619 350.247 116.851 348.392 119.302C346.53 121.76 345.304 125.193 344.708 129.594C344.113 134.002 343.815 139.872 343.815 147.198V172.223H324.748V100.181H342.406V110.311H342.704C345.013 106.431 347.322 103.499 349.638 101.508C351.967 99.5043 355.068 98.5022 358.954 98.5022Z" fill="black"/>
<path d="M407.237 98.5022C418.734 98.5022 427.313 102.24 432.967 109.715C438.613 117.176 441.444 127.806 441.444 141.619H393.587C393.784 146.44 395.199 150.597 397.839 154.077C400.473 157.544 404.299 159.277 409.323 159.277C412.464 159.277 415.024 158.478 417.014 156.867C419.019 155.242 420.488 152.716 421.429 149.283L440.469 152.479C438.065 159.521 434.172 164.856 428.796 168.486C423.413 172.101 416.825 173.902 409.025 173.902C397.433 173.902 388.672 170.422 382.754 163.448C379.971 160.218 377.832 156.149 376.335 151.233C374.852 146.304 374.114 141.429 374.114 136.608C374.114 130.041 375.293 123.852 377.662 118.056C380.025 112.261 383.688 107.562 388.658 103.946C393.621 100.317 399.817 98.5022 407.237 98.5022ZM394.021 129.946H422.539C422.445 124.096 420.982 119.83 418.152 117.136C415.315 114.448 412.004 113.1 408.212 113.1C403.75 113.1 400.263 114.712 397.758 117.921C395.267 121.117 394.021 125.125 394.021 129.946Z" fill="black"/>
<path d="M461.469 109.363C467.678 102.125 476.487 98.5022 487.903 98.5022C505.053 98.5022 515.758 106.153 520.023 121.442L501.255 124.8C499.684 117.183 495.323 113.371 488.173 113.371C483.353 113.371 479.52 115.043 476.69 118.381C473.873 121.726 472.465 127.15 472.465 134.658C472.465 141.991 473.664 147.767 476.067 151.992C478.484 156.203 482.621 158.302 488.471 158.302C492.263 158.302 495.296 157.178 497.571 154.917C499.846 152.642 501.397 149.189 502.23 144.544L520.998 147.74C517.112 165.181 505.947 173.902 487.496 173.902C476.555 173.902 468.111 170.564 462.173 163.881C459.1 160.455 456.784 156.284 455.213 151.369C453.642 146.44 452.857 141.389 452.857 136.202C452.857 130.826 453.595 125.816 455.078 121.171C456.554 116.533 458.686 112.599 461.469 109.363Z" fill="black"/>
<path d="M540.618 77.7835C542.473 75.4543 544.883 73.7413 547.849 72.6377C550.808 71.5205 554.471 70.9585 558.845 70.9585C564.221 70.9585 569.502 71.7439 574.689 73.3147L572.197 86.6668C568.947 85.9288 566.022 85.5564 563.422 85.5564C560.456 85.5564 558.418 86.2809 557.301 87.7231C556.198 89.1517 555.649 91.2642 555.649 94.0606V100.181H569.976V115.321H555.649V172.223H536.582V115.321H526.02V100.181H536.582V93.0856C536.582 86.2267 537.923 81.1283 540.618 77.7835Z" fill="black"/>
<path d="M609.062 151.369H609.333L626.016 100.181H645.76L620.329 169.569L618.649 174.444C616.225 181.215 614.072 186.333 612.176 189.8C610.281 193.28 607.498 196.09 603.835 198.223C600.165 200.369 595.141 201.446 588.749 201.446C584.937 201.446 581.315 201.067 577.889 200.308L576.21 185.44C579.46 185.995 582.1 186.279 584.145 186.279C588.133 186.279 591.214 185.23 593.381 183.138C595.561 181.059 597.45 177.464 599.041 172.358L571.633 100.181H591.945L609.062 151.369Z" fill="black"/>
</svg>
