<svg width="700" height="320" viewBox="0 0 700 320" fill="none" xmlns="http://www.w3.org/2000/svg">
<path d="M4.85623 128.318H65.326V188.78H4.85623V128.318Z" fill="#2525EA"/>
<path d="M186.258 188.78H125.789V128.318H186.258V188.78Z" fill="#02257A"/>
<path d="M65.3333 128.318L125.796 67.8479V128.318L65.3333 188.78V128.318Z" fill="#A6A6F1"/>
<path d="M125.796 188.78L65.3333 249.25V188.78L125.796 128.318V188.78Z" fill="#6C6CEC"/>
<path d="M4.85623 128.318L125.789 7.38541V67.8552L65.326 128.318H4.85623Z" fill="#4B4BE5"/>
<path d="M186.258 188.78L65.326 309.713V249.25L125.789 188.78H186.258Z" fill="#1212C1"/>
<path d="M314.394 86.7627C319.776 89.0595 324.209 92.7054 327.694 97.7002C331.194 102.702 332.944 109.192 332.944 117.183C332.944 124.964 331.224 131.431 327.782 136.579C324.34 141.713 319.973 145.38 314.686 147.575C309.298 149.872 300.701 151.017 288.903 151.017H272.453V191.471H250.869V84.2252H288.174C295.057 84.2252 300.54 84.4002 304.624 84.7502C308.721 85.1002 311.981 85.771 314.394 86.7627ZM310.632 117.475C310.632 111.08 307.489 106.53 301.211 103.825C298.892 102.833 294.043 102.338 286.657 102.338H272.453V132.904H286.657C294.043 132.904 299.884 131.883 304.186 129.842C308.481 127.786 310.632 123.658 310.632 117.475Z" fill="black"/>
<path d="M386.566 112.079C388.761 112.079 391.087 112.429 393.537 113.129C395.987 113.829 398.16 114.726 400.07 115.813L393.625 133.808C390.125 131.614 386.924 130.513 384.029 130.513C380.135 130.513 377.189 131.84 375.191 134.479C373.186 137.126 371.866 140.823 371.225 145.563C370.583 150.31 370.262 156.631 370.262 164.521V191.471H349.729V113.888H368.745V124.796H369.066C371.553 120.618 374.039 117.461 376.533 115.317C379.041 113.158 382.381 112.079 386.566 112.079Z" fill="black"/>
<path d="M438.563 112.079C450.945 112.079 460.183 116.104 466.272 124.154C472.353 132.19 475.401 143.638 475.401 158.513H423.863C424.075 163.704 425.599 168.181 428.443 171.929C431.279 175.663 435.399 177.529 440.809 177.529C444.193 177.529 446.949 176.669 449.093 174.933C451.251 173.183 452.833 170.464 453.847 166.767L474.351 170.208C471.762 177.792 467.57 183.538 461.78 187.446C455.983 191.34 448.888 193.279 440.488 193.279C428.005 193.279 418.57 189.531 412.197 182.021C409.2 178.543 406.896 174.161 405.284 168.867C403.687 163.558 402.893 158.308 402.893 153.117C402.893 146.044 404.161 139.379 406.713 133.138C409.258 126.896 413.203 121.836 418.555 117.942C423.9 114.033 430.572 112.079 438.563 112.079ZM424.33 145.942H455.043C454.94 139.642 453.365 135.048 450.318 132.146C447.262 129.251 443.697 127.8 439.613 127.8C434.808 127.8 431.053 129.536 428.355 132.992C425.672 136.433 424.33 140.75 424.33 145.942Z" fill="black"/>
<path d="M496.967 123.775C503.653 115.98 513.14 112.079 525.434 112.079C543.903 112.079 555.432 120.319 560.025 136.783L539.813 140.4C538.121 132.197 533.425 128.092 525.725 128.092C520.534 128.092 516.407 129.893 513.359 133.488C510.325 137.09 508.809 142.93 508.809 151.017C508.809 158.914 510.099 165.133 512.688 169.683C515.291 174.219 519.746 176.479 526.046 176.479C530.13 176.479 533.396 175.269 535.846 172.833C538.296 170.383 539.966 166.665 540.863 161.663L561.075 165.104C556.89 183.888 544.866 193.279 524.996 193.279C513.213 193.279 504.12 189.685 497.725 182.488C494.415 178.798 491.921 174.306 490.23 169.013C488.538 163.704 487.692 158.265 487.692 152.679C487.692 146.89 488.487 141.494 490.084 136.492C491.673 131.497 493.97 127.261 496.967 123.775Z" fill="black"/>
<path d="M582.204 89.7668C584.202 87.2585 586.798 85.4137 589.991 84.2252C593.178 83.022 597.123 82.4168 601.833 82.4168C607.623 82.4168 613.31 83.2627 618.896 84.9543L616.212 99.3335C612.712 98.5387 609.562 98.1377 606.762 98.1377C603.569 98.1377 601.374 98.9179 600.171 100.471C598.982 102.01 598.391 104.285 598.391 107.296V113.888H613.821V130.192H598.391V191.471H577.858V130.192H566.483V113.888H577.858V106.246C577.858 98.8595 579.302 93.3689 582.204 89.7668Z" fill="black"/>
<path d="M655.913 169.013H656.204L674.171 113.888H695.434L668.046 188.613L666.238 193.863C663.627 201.154 661.309 206.667 659.267 210.4C657.225 214.148 654.228 217.174 650.284 219.471C646.332 221.782 640.921 222.942 634.038 222.942C629.933 222.942 626.032 222.533 622.342 221.717L620.534 205.704C624.034 206.302 626.877 206.608 629.079 206.608C633.374 206.608 636.692 205.478 639.025 203.225C641.373 200.987 643.408 197.115 645.121 191.617L615.604 113.888H637.479L655.913 169.013Z" fill="black"/>
</svg>
